<?xml version="1.0" encoding="utf-8"?>
<!-- Generator: Adobe Illustrator 26.1.0, SVG Export Plug-In . SVG Version: 6.00 Build 0)  -->
<svg version="1.1" xmlns="http://www.w3.org/2000/svg" xmlns:xlink="http://www.w3.org/1999/xlink" x="0px" y="0px"
	 viewBox="0 0 1122 1122" style="enable-background:new 0 0 1122 1122;" xml:space="preserve">
<style type="text/css">
	.st0{fill:#FFFFFF;}
	.st1{fill:#212124;}
</style>
<g id="Bg">
	<rect class="st0" width="1122" height="1122"/>
</g>
<g id="Object">
	<g>
		<path class="st1" d="M613.03,670.52L613.03,670.52c-0.39,0.47-0.79,0.93-1.18,1.4h0c-1.16,0.23-2.2,0.71-3.05,1.55
			c-10.45,3.86-20.53,8.64-30.95,13.13c-0.44-6.62,0.3-12.8-1-18.87l0,0c0.16-7.82-0.73-15.59-1.83-23.29
			c-1.64-11.49-2.77-23.09-6.51-34.18c-0.33-2.84-1.23-5.45-4.46-5.87c-2.98-0.39-4.76,1.35-5.43,4.23
			c-4.24,9.03-5.42,18.6-5.06,28.45l0,0v0c-0.29,1.68-0.58,3.36-0.86,5.04c-2.42,3.39-4.85,6.78-7.27,10.16
			c-2.34,1.52-4.47,3.45-7.37,3.94c-4.44-4.39-4.86-10.04-4.38-15.68c1.34-15.48,4.56-30.63,9.37-45.38
			c2.79-8.57,7.86-15.93,14.75-21.89c2.63-0.4,5.06,0.04,7.2,1.7c0.98,2.07,2.53,3.89,2.79,6.28c0.08,0.71,0.38,1.4,1.14,1.51
			c1.05,0.14,1.41-0.79,1.62-1.52c1.15-4.11,1.02-8.03-1.99-11.44c-5.05-7.58-13.02-9.78-20.88-5.75h0
			c-1.98,0.29-3.5,1.52-5.09,2.56c-8.84,5.82-15.19,13.7-19.56,23.33c-4.23,9.34-6.48,19.2-8.25,29.21
			c-0.23,0.33-0.45,0.66-0.68,0.99c-1.23,1.85-2.96,3.41-3.25,5.79h0c-0.33,1.2-2.3,1.6-1.6,3.29c-0.55,1.54-3.11,1.87-2.47,4.12
			c-0.33,0.48-0.66,0.96-0.99,1.44c-2.77,1.78-3.65,4.85-5.09,7.53l0,0c-1.34,1.48-2.5,3.08-3.26,4.94
			c-1.49,1.53-3.27,2.84-3.93,5.02c-0.19,0.14-0.23,0.32-0.1,0.53c-1.69,0.18-2.53,1.46-3.42,2.67h0c-1.44,0.36-1.28-0.72-1.4-1.55
			c-0.12,0.18-0.23,0.36-0.35,0.55c0.06-0.19,0.17-0.38,0.35-0.55c0.4-1.02,0.82-2.02,1.2-3.05c7.09-18.96,12.73-38.28,14.1-58.61
			c0.54-8,0.11-15.89-3.7-23.22c-3.48-8.38-10.59-10.37-17.38-4.87c-3.41,1.15-5.34,4-7.41,6.61c-4.16,5.24-6.95,11.29-9.89,17.24
			c-0.58,0.29-1.17,0.59-1.75,0.88c-1.64-3.73-2.04-8.11-5.71-10.76c-3.23-3.66-6.11-3.47-9.16,0.58l0,0
			c-2.53,2.97-4.27,6.39-5.68,9.99c-2.14,3.37-3.92,6.91-5.03,10.76c0,0,0,0,0,0l0,0l0,0c0.01,0,0.01-0.01,0.02-0.01
			c-1.37,1.69-2.2,3.62-2.48,5.78c-1.06,1.17-1.47,2.61-1.62,4.14v0c-0.94,1.53-1.68,3.12-1.58,4.98l0,0
			c-0.01,0.5-0.01,0.99-0.02,1.49c-2.32,2.31-2.51,5.47-3.31,8.38c-1.16,2.06-2.09,4.21-2.56,6.54c-1.32,2.77-2.64,5.54-3.96,8.31
			c-0.92,0.9-1.55,1.96-1.78,3.24c-2.33,1.63-2.46,5.75-6.36,5.62l0,0c1.13-12.82,2.25-25.64,3.38-38.46
			c-0.19,0.36-0.36,0.72-0.5,1.09c0.13-0.37,0.29-0.73,0.5-1.09c1.38-8.92,2.8-17.84,4.11-26.77c0.54-3.66,1.02-7.36,0.3-11.05
			c-0.38-1.95-1.23-3.69-3.4-4.24c-2.11-0.54-3.79,0.3-5.11,1.87c-0.96,1.15-1.83,2.4-2.61,3.68c-4.6,7.52-8.16,15.5-10.88,23.89
			c-4.62,14.24-6.15,28.92-6.57,43.77c-1.68,3.28-3.7,6.41-4.74,9.99c0,0,0,0,0,0c0,0,0,0,0,0c-0.11,0.22-0.16,0.45-0.16,0.69
			c-1.82,0.84-2.55,2.57-3.44,4.18h0c-1.11,1.08-2.22,2.16-3.33,3.24c-1.54,0.3-2.57,2.03-4.64,1.56c0-1.28,0-2.59,0-3.91
			c2.26-9.32,4.65-18.6,6.76-27.95c2.32-10.27,5.1-20.47,5.63-31.07c1.7-10.3,1.9-20.43-3.34-29.96c-0.55-2.13-1.88-3.52-3.97-4.2
			c-2.01-1.38-3.99-1.06-5.97,0.07c-5.9,3.09-7.3,9-9.17,14.62c-2.12,4.27-4.04,8.61-4.84,13.36c-1.08,1.45-1.41,3.18-1.83,4.87h0
			c-2.47,4.99-3.82,10.38-5.68,15.59c-1.71-2.28,0.13-4.93-0.75-7.3c0.23-2.87,0.5-5.73,0.67-8.6c0.57-9.72,1.28-19.48-3.83-28.44
			c-2.7-5.56-6.02-6.41-10.91-2.79l0,0c-2.1,1.18-3.48,3.09-4.67,5.05c-5.24,8.65-9.03,17.99-12.73,27.37l0,0
			c-1.28,0.65-1.2-0.24-1.27-1.07c-0.2-2.42,0.26-4.93-0.89-7.23c-0.72-6.66-1.74-13.22-5.74-18.88c-3.18-4.75-6.39-5.02-10.1-0.86
			c-4.92,4.88-9.22,10.21-12.14,16.56c-0.14,0.21-0.2,0.44-0.18,0.7c-2.2,1.36-3.15,3.66-4.31,5.8c-1.3,1.67-2.59,3.34-3.89,5.01
			c-1.51,0.48-1.76,2.68-3.78,2.82c-0.34-3.27-0.2-6.52-2-9.32c-0.76-1.25-1.62-2.36-3.16-2.68c-1.39-1.28-3.04-1.03-4.62-0.65
			c-6.04,1.43-10.18,7.05-10.48,14.1c-0.32,7.58,2.72,12.5,9.12,14.77c1.18,1.12,2.71,0.65,4.08,0.9l0.21-0.18
			c0.01,0.01,0.01,0.02,0.01,0.04c-0.08,0.05-0.15,0.09-0.23,0.14c-0.84,5.68-3.52,10.79-5.03,16.26
			c-2.19,4.39-4.38,8.78-6.57,13.17c-3.78,5.49-8.35,10.27-13.19,14.82c-2.12,0.69-3.59,3.15-6.28,2.31
			c-1.12-6.54-1.08-13.07,0.11-19.59c2.4-13.19,4.59-26.43,7.33-39.55c2.29-10.97,5.21-21.82,10.69-31.75
			c2.4-1.57,4.82-1.57,7.25-0.07c2.4,2.6,4.13,5.68,5.99,8.66c0.76,1.22,1.29,3.14,3.21,2.28c1.7-0.76,1.08-2.49,0.89-3.99
			c-0.56-4.52-3.02-8.01-5.93-11.28c-4.36-4.85-9.6-6.41-15.84-4.21c0,0,0,0,0,0c-5.2,1.73-8.82,5.34-11.66,9.87
			c-16.19,20.99-22.66,44.75-19.73,70.99c0.82,7.35,2.96,14.49,7.43,20.66c0.51,1.41,1.25,2.63,2.67,3.3h0l-0.05,0c0,0,0,0,0,0h0
			l0,0l0,0c5.21,4.9,10.1,4.69,15.86-0.69c6.12-4.56,10.74-10.44,14.77-16.83c0.75-1.19,1.32-2.4,1.01-3.85
			c2.48-0.75,2.43-3.1,3.13-4.97l0,0c4.21-8.71,7.27-17.79,9-27.31c1.43-1.55,3.37-2.62,4.26-4.66c2.52-2.32,4.32-5.14,5.76-8.21
			l0,0c1.25-1.13,2.02-2.54,2.49-4.14l0,0c1.22-1.16,1.98-2.59,2.42-4.19h0c2.13-2.74,3.63-5.82,4.94-9
			c1.64-2.52,3.27-5.04,4.91-7.56c0.53,0.04,1-0.68,1.58-0.13c-4,18.07-8.83,35.99-11.17,54.39c-1.2,9.4-1.97,18.9,1.85,28
			c1.29,3.08,3.37,5.49,7.01,5.49c3.75,0,5.26-2.7,6.59-5.8c6.31-14.63,9.63-29.99,11.45-45.73c1.09-3.01,2.18-6.03,3.27-9.04
			c0.6-1.21,1.23-2.4,1.78-3.63c3.78-8.45,6.83-17.24,11.41-25.31c1.1-1.94,1.61-4.83,4.8-4.85c-0.17,1.77-0.23,3.56-0.54,5.31
			c-2.23,12.43-6.27,24.41-8.96,36.73c-2.4,10.98-5.18,21.91-4.53,33.3c0.29,5.12,1.14,10.12,4.47,14.27
			c1.82,2.27,4.23,3.53,7.22,3.05c3.04-0.49,4.75-2.56,5.63-5.36c0.41-1.3,0.69-2.65,0.98-3.99c1.62-7.5,3.22-15,4.83-22.5
			c2.23-5.02,3.69-10.28,5-15.59c2.8-5.69,2.9-12.26,5.86-17.9c0,0,0,0,0,0c0.95-1.31,1.65-2.7,1.5-4.38c0,0,0,0,0,0
			c1.68-4.37,3.36-8.75,5.05-13.12h0c0.25-0.61,0.49-1.21,0.74-1.82h0c1.42-1.3,2-3.03,2.47-4.81c1.44-1.88,2.87-3.76,4.31-5.64
			c0.44,0.04,0.88,0.08,1.32,0.12c-0.07,0.23,0,0.43,0.19,0.58c-0.04,0.77-0.08,1.53-0.12,2.3c-0.12,0.22-0.19,0.45-0.24,0.68
			c-0.5,1.43-0.68,2.91-0.56,4.43c-2.1,6.2-4.15,12.43-6.32,18.61c-5.95,16.95-9.2,34.28-7.76,52.32c0.31,3.94,0.7,7.88,2.47,11.51
			c0.65,3.34,2.06,6.22,4.89,8.27c3.36,3.16,6.75,2.57,10.15,0.06c3.42-1.95,6.42-4.29,7.65-8.27c0.17-0.31,0.34-0.63,0.51-0.94
			c0.28-0.28,0.56-0.56,0.84-0.84c1.41-0.66,1.85-1.8,1.6-3.27c0.45-0.72,1.3-1.27,0.95-2.31c1.1-0.1,1.61-0.88,1.94-1.79
			c0.7-1.97,1.39-0.76,2.1-0.02c0.63,2.4,1.26,4.8,3.01,6.69c4.47,7.77,12.3,9.48,19.3,4.14c2.83-2.16,5.29-4.7,6.63-8.11h0
			c1.39-1.37,2.12-3.06,2.5-4.94l0,0v0c1.35-2.03,2.07-4.29,2.42-6.68l0,0c1.34-2.56,2.1-5.31,2.5-8.16l0,0
			c1.01-1.82,1.52-3.78,1.61-5.85l0,0c1.04-2.08,1.5-4.3,1.65-6.61l0,0c1.3-3.16,1.95-6.48,2.48-9.84h0
			c2.47-5.82,4.94-11.64,7.41-17.46l0,0c0.2-0.02,0.39-0.07,0.58-0.14c2.32,2.5-0.95,5.19,0.27,7.73l0,0l0,0
			c-2.92,14.79-5.98,29.55-8.72,44.37c-1.65,8.89-3.16,17.87-1.39,26.95c0.78,3.99,3.22,6.7,7.33,7.38c4.13,0.69,7.16-1.24,9.3-4.69
			c0.58-0.93,1.1-1.91,1.47-2.94c6.43-17.93,10.41-36.34,10.96-55.43c0.96-3.56,0.74-7.22,0.81-10.85c0.77-0.94,0.78-2.08,0.81-3.21
			c3.26-8.82,6.66-17.57,11.64-25.61c0.97-1.08,1.87-2.25,2.93-3.22c1.91-1.75,3.54-4.16,6.73-3.35c0.36,4.15-0.25,8.19-1.4,12.16
			c-2.66,9.19-5.31,18.4-8.05,27.57c-3.66,12.26-5.82,24.77-6.14,37.55c-0.12,4.9,0.04,9.87,3.13,14.11
			c3.18,5.47,7.13,6.54,12.55,3.4c2.32-1,4.55-2.09,5.04-4.94c0,0.01,0,0.02,0.01,0.03l0,0l0,0h0c3.39-1.4,4.7-4.63,6.51-7.41v0
			c1.91-1.86,3.2-4.12,4.12-6.6l0,0c1.87-2.18,3.08-4.72,4.14-7.35l0,0c1.53-2.06,3.15-4.08,3.16-6.84
			c-0.08,0.08-0.15,0.15-0.23,0.23c0.07-0.09,0.14-0.17,0.23-0.23c0.27-0.55,0.55-1.1,0.82-1.65c0.42-0.68,1.29-1.14,1.02-2.15l0,0
			c0.26,0.03,0.48-0.06,0.65-0.26l0,0c1.2,1.29,0.55,2.87,0.65,4.33c0.19,2.98-0.37,6.03,0.89,8.91c1.57,9.94,4.79,18.95,13.84,24.7
			c10.9,6.79,17.25-0.65,24.12-8.52c-0.19,15.75,0.2,30.59-0.83,45.4c-6.46,5.55-13.27,10.73-19.01,17.08
			c-4.08,3.17-7.82,6.69-10.86,10.9h0c-6.16,5.96-10.35,13.37-14.84,20.53c-3.48,5.54-7.06,11.06-8.96,17.42
			c-1.05,1.47-1.58,3.12-1.7,4.92h0h0c-1.67,4.63-2.73,9.33-1.49,14.27l0,0c0.08,4.31,1.25,8.24,4.09,11.58
			c0.57,1.79,1.97,2.94,3.29,4.1c9.38,8.25,26.57,8.18,37.39-0.13c11.08-6.71,17.6-16.96,22.04-28.72
			c6.47-17.14,9.76-35.05,12.34-53.09c1.4-9.74,2.27-19.56,3.38-29.34c10.74-4.52,21.48-9.04,32.22-13.57
			c2.66-1.12,5.3-2.29,7.04-4.78c0.34,0.03,0.68,0.05,1.02,0.08c0-1.1,0-2.2,0-3.3C616.27,669.72,614.59,667.91,613.03,670.52z
			 M293.47,588.93c0.15-0.07,0.25,0.07,0.34,0.28C293.69,589.09,293.58,589,293.47,588.93z M269.79,600.8
			c0.16-3.82,1.61-5.09,5.23-4.45c0.41-0.05,0.7,0.11,0.96,0.34c-0.38,0.15-0.84,0.23-1.44,0.25c-0.71,2.85-0.74,5.69,0.03,8.54
			c0.14,0.27,0.29,0.46,0.46,0.59c-1.79-0.29-3.56-0.7-5.38-0.84c-0.01-0.01-0.02-0.02-0.03-0.04
			C270.73,603.82,269.73,602.26,269.79,600.8z M303.09,575.77c0.05-0.04,0.08-0.09,0.13-0.12c0,0.03,0,0.07,0,0.1
			C303.18,575.75,303.13,575.76,303.09,575.77z M431.72,630.01c0,0.04,0,0.09,0.01,0.13c-0.05,0-0.11-0.01-0.16-0.01
			C431.62,630.09,431.66,630.05,431.72,630.01z M433.4,621.78L433.4,621.78c0-0.01,0-0.02,0-0.03c0.01,0.01,0.01,0.01,0.02,0.01
			C433.41,621.77,433.41,621.77,433.4,621.78L433.4,621.78z M432.11,619.97c-0.11,0.04-0.24,0.09-0.37,0.15v0v0
			c0.01-0.06,0.02-0.13,0.03-0.19C431.9,619.93,432.02,619.94,432.11,619.97z M500.11,645.66c0-0.01,0-0.02,0-0.04
			c0.02,0,0.04,0.01,0.06,0.01C500.15,645.64,500.13,645.65,500.11,645.66L500.11,645.66L500.11,645.66z M501.74,646.26
			c0.02,0.04,0.04,0.1,0.06,0.15c-0.02,0.02-0.04,0.04-0.06,0.06C501.75,646.39,501.74,646.33,501.74,646.26z M476.22,576.46
			L476.22,576.46c-0.03,0.08-0.06,0.15-0.09,0.23c-0.11-0.03-0.22-0.06-0.32-0.1C475.96,576.54,476.09,576.49,476.22,576.46
			L476.22,576.46C476.23,576.46,476.23,576.46,476.22,576.46L476.22,576.46z M476.21,572.34L476.21,572.34
			C476.21,572.34,476.21,572.33,476.21,572.34L476.21,572.34z M495.99,782.41L495.99,782.41c0.01,0.04,0.01,0.08,0.01,0.11
			c-0.02-0.02-0.04-0.04-0.06-0.06C495.96,782.45,495.97,782.43,495.99,782.41L495.99,782.41z M500.94,775.82c0-0.01,0-0.02,0-0.04
			c0.01,0.01,0.01,0.01,0.02,0.02C500.95,775.81,500.95,775.81,500.94,775.82z M533.11,720.59c-0.01,0.01-0.03,0.03-0.04,0.04
			c0-0.01,0-0.03,0-0.04C533.08,720.59,533.1,720.59,533.11,720.59z M549.3,723.23c-0.8,12.02-2.09,23.99-4.31,35.83
			c-2.71,14.4-7.88,27.41-21.32,35.41c-1.45,0.96-3.03,1.64-4.65,2.05c-1.94,0.33-3.62,0.48-5.1,0.41c-1.52-0.13-3-0.49-4.41-1.06
			c-2.56-1.3-4.54-3.8-6.72-7.78c-0.31-1.35-0.62-2.7-0.93-4.04c0.28-3.73,0.57-7.45,0.85-11.18c0.93-1.58,1.39-3.3,1.62-5.11l0,0
			l0,0c6.51-13.99,14.77-26.87,24.75-38.64c1.07-0.66,2.14-1.33,2.35-2.73h0l0,0c0.34-0.48,0.68-0.97,1.01-1.45h0l0.03,0.02l0,0
			c1.94-0.02,2.67-1.74,3.84-2.8c4.8-4.34,9.26-9.07,14.9-13.34c0,0.32,0,0.63,0,0.93c-0.47,2.17-0.04,4.45-0.77,6.58
			C550.06,718.64,549.46,720.9,549.3,723.23z M577.19,686.12c-0.01-0.03-0.01-0.06-0.02-0.1
			C577.17,686.06,577.18,686.09,577.19,686.12z"/>
		<path class="st1" d="M424.6,550.22L424.6,550.22c3.11-1.81,3.81-4.35,2.33-7.57c-2.03-3.53-4.89-4.67-7.97-3.19
			c-2.95,1.42-4.22,4.97-2.87,8.01C417.56,550.78,420.46,551.71,424.6,550.22z"/>
		<path class="st1" d="M225.27,487.83c1.49,0.04,1.98-1.22,2.29-2.46c0.94-3.75,1.13-7.5,0-11.25c0.13-0.23,0.11-0.44-0.08-0.64
			c0.13-1.77,0.16-3.52-0.76-5.12c0,0,0,0,0,0c-0.12-2.57-0.53-5.08-1.65-7.43l0,0c-0.75-5.33-2.6-10.33-4.81-15.18
			c-2.81-6.18-6.47-11.72-12.49-15.31c-9.65-7.7-20.26-11.15-32.5-7.34c-2.45,0.19-4.66,1.03-6.62,2.51c0,0,0,0,0,0
			c-6.1,2.32-10.36,6.99-14.7,11.56c-17.99,18.93-30.38,41.02-38.34,65.88c-13.92,43.47-19.4,87.39-9.35,132.54
			c4.8,21.59,12.94,41.31,29.33,56.84c3.07,2.91,6.04,5.98,10.01,7.73l0,0c14.06,10.24,34.3,5.64,43.22-9.81
			c5.42-7.11,9.77-14.83,13.21-23.08c1.8-2.53,2.07-5.47,2.26-8.42c0.1-1.5-0.57-2.67-2.07-3.1c-1.36-0.39-2.36,0.35-3.06,1.45
			c-0.64,1.01-1.47,1.96-1.47,3.26c-3.89,5.75-7.77,11.51-11.66,17.26c-3.88,4.12-7.7,8.3-12.42,11.52
			c-11.43,3.97-16.15,2.8-24.34-6.31c-10.64-11.83-16.07-25.85-18.19-41.53c-5.5-40.57-3.11-80.73,5.08-120.73
			c6.11-29.85,16.1-57.84,36.21-81.39c0,0,0,0,0,0c3.23-2.55,6.8-4.51,10.66-5.92c6.94-1.1,13.2,0.71,19.15,4.26
			c5.52,3.29,8.83,8.37,11.85,13.76c1.67,4.66,3.34,9.32,5.01,13.98c0.46,3.39,1.54,6.6,2.64,9.82c0.55,3.35,1.14,6.69,1.63,10.05
			C223.51,486.49,223.71,487.79,225.27,487.83z M224.94,463.61c-0.08-0.05-0.14-0.11-0.2-0.16c0.07-0.01,0.14-0.02,0.21-0.03
			C224.94,463.48,224.94,463.55,224.94,463.61z"/>
	</g>
	<g>
		<path class="st1" d="M780.74,448.09L780.74,448.09c-2.61-5.2-6.91-8.25-12.44-9.71c-2.25-1.52-4.99-1.51-7.45-2.41
			c-4.4-1.41-8.8-1.47-13.18,0.08c-0.34,0.23-0.67,0.46-1.01,0.69c-1.84,0.05-3.54,0.52-5.03,1.64l0,0
			c-2.46,0.56-4.68,1.6-6.56,3.31l0,0c-2.61,1.11-4.83,2.76-6.68,4.91c-2.92,1.66-4.98,4.25-7.14,6.71
			c-8.28,9.45-12.9,20.69-15.1,32.85c-3.18,17.6-2.09,34.9,5.15,51.52c0,0,0,0,0,0c1.73,6.12,5.06,11.49,7.94,17.07
			c8.61,16.68,18.39,32.75,26.4,49.75c5.96,12.65,8.96,25.94,6.86,39.94c-2.58,17.19-8.14,32.77-24.69,41.77
			c-10.08,4.23-17.26-0.15-23.52-7.73c-5.19-6.28-8.78-13.4-11.78-20.89c0.03-1.78-1.12-3.05-1.99-4.4
			c-0.86-1.33-2.07-2.33-3.78-1.84c-1.81,0.53-2.04,2.09-1.86,3.66c0.2,1.74-0.08,3.59,0.91,5.19l0,0
			c0.79,10.34,5.63,19.11,10.97,27.62c12.18,19.45,32.59,16.74,45.48,7.79l0,0c6.01-3.12,10.4-8.08,14.14-13.47
			c22.27-32.1,26.85-66.05,9.45-101.75c-8.35-17.14-18.98-33-29.44-48.92c-0.28-0.14-0.51-0.34-0.7-0.58
			c0.22,0.2,0.45,0.39,0.7,0.58c-2.13-4.6-4.67-9.05-6.31-13.81c-8.59-24.88-9.5-48.53,11.9-68.22c2.46-1.41,4.92-2.81,7.39-4.22
			c1.18,0.02,2.24-0.37,3.23-0.99c5.53-0.92,10.99-0.6,16.4,0.87c3.24,1.6,5.75,4.1,8.18,6.69c0.18,0.54,0.37,1.08,0.55,1.63l0,0
			c0.64,1.35,1.27,2.7,1.91,4.06l0,0c2.91,9.44,2.81,19.07,1.77,28.75c-1.02,1.55-0.89,3.26-0.76,4.98
			c-0.11,0.23-0.15,0.48-0.1,0.73c-0.95,1.74-1.72,3.78,0.43,4.87c1.5,0.76,2.77-0.48,3-2.28h0c3.63-9.32,3.84-19.03,2.73-28.74
			C786,459.56,784.52,453.38,780.74,448.09z M742.76,438.58L742.76,438.58C742.75,438.58,742.75,438.58,742.76,438.58L742.76,438.58
			z"/>
		<path class="st1" d="M1010.78,647.87c-0.56-1.33-1.83-1.44-2.93-0.27l0,0c-4.33,3.86-8.27,8.1-12.03,12.52
			c-0.31,0.54-0.63,1.08-0.94,1.62c-1.08,1.07-2.78,1.39-3.5,2.9c-2.03,0.29-3.54,1.55-5.11,2.72c-1.56,0.02-2.85,1.6-4.56,0.78
			c0.09-2.91,0.99-5.64,1.95-8.35c3.04-8.64,6.11-17.26,9.18-25.89c3.22-9.05,6.02-18.24,6.48-27.87
			c0.41-8.46,0.45-17.01-5.14-24.28c-3.1-4.57-6.12-5.61-11.75-4.05c-9.84,1.77-15.73,8.46-20.53,16.51
			c-0.42,2.34-2.21,3.91-3.47,5.7c-4.36,6.2-7.76,13.06-12.91,18.71c0.15-0.23,0.1-0.41-0.14-0.53c1.03-7.33,1.63-14.68,0.9-22.08
			c-0.35-3.5-1.68-6.57-5.62-7.06c-3.97-0.5-5.91,2.24-7.14,5.52c-0.62,1.66-1.02,3.4-1.49,5.11c-1.07,3.95-2.13,7.91-3.19,11.86
			c-3.05,4.12-6.1,8.25-9.15,12.38c-1.45,1.07-2.89,2.14-4.33,3.21l0,0c-0.19,0.18-0.37,0.36-0.56,0.54l0,0
			c-1.57,0.39-3.14,0.78-4.71,1.17c-0.46-3.74,0.37-7.59-1.28-11.23c-2.42-5.35-7.52-6.55-12.16-2.76
			c-3.49,3.2-4.61,7.06-3.26,11.62c-0.09,1.44,0.46,2.56,1.66,3.36c0.29,0.28,0.58,0.56,0.87,0.84c1.45,2.5,4.25,2.97,6.48,4.28l0,0
			c-1.67,5.6-4.34,10.79-6.64,16.13c-2.11,2.77-4.22,5.54-6.33,8.31c-0.03,0.27-0.05,0.54-0.08,0.82c-0.27,0.26-0.55,0.53-0.82,0.79
			c-2.68-0.19-4.07,2.03-6,3.24c-2.75-0.84-1.88-3.28-2.07-5.08c-0.73-7.13,1.4-14.08,1.6-21.16c2.18-8.97,4.23-17.98,6.57-26.91
			c1.44-5.51,3.1-11.01,6.57-15.7c3.73-2,5.9-0.32,7.26,3.13c0.6,1.52,1.12,3.07,1.66,4.6c0.32,0.89,0.53,1.98,1.7,2
			c1.39,0.02,1.8-1.21,1.96-2.24c0.67-4.05-0.06-7.82-2.7-11.09c-1.75-3.38-4.49-5.37-8.28-5.87c-1.38-0.87-2.93-0.74-4.4-0.51
			c-6.48,1.02-10.64,5.22-13.99,10.47c-2.48,2.3-3.87,5.35-5.64,8.14c-5.07,5.65-10.37,11.07-16.46,15.66l0,0
			c-3.11,0.2-2.01-2.38-2.29-3.77c-1.53-7.56-6.94-11.75-13.44-10.17h0c-4.83,1.57-7.82,5.93-7.9,11.52
			c-0.08,5.46,3.39,10.51,8.63,12.56h0c0.92,0.96,2.1,0.93,3.29,0.85l0,0l0,0c2.25,0.33,3.36,1.33,2.42,3.77
			c-1.16,3.03-2.22,6.1-3.32,9.16l0,0c-2.89,6.18-6.56,11.88-10.6,17.35c-2.21,2.38-5.08,4.16-6.52,7.24
			c0.07,0.13,0.15,0.22,0.25,0.3c-0.04,0.04-0.09,0.07-0.13,0.1l0,0c-0.07-0.13-0.11-0.26-0.11-0.41c-1.89-0.33-3.66,2.41-5.62,0.21
			c-1.45-4.18-1.81-8.48-1.6-12.89c0.69-14.42,0.66-28.9,4.21-43.03c2.53-6.03,5.01-12.07,8.46-17.66c1.16-1.89,2.34-3.74,4.57-4.54
			c2.09,0.38,3.46,1.82,4.81,3.29l0.28-0.21c0.01,0,0.01,0.01,0.02,0.01c-0.1,0.07-0.2,0.13-0.3,0.2c0.94,2.11,1.87,4.23,2.82,6.33
			c0.53,1.16,1.2,2.3,2.72,1.92c1.44-0.36,1.83-1.67,1.72-2.92c-0.35-4.05-0.58-8.19-3.74-11.33v0l0.06,0.01
			c-1.69-3-4.04-5.14-7.55-5.75c-3.74-1.69-7.21-0.71-10.39,1.34c-4.03,2.6-7.31,6-9.72,10.2c-15.48,19.53-20.59,41.9-17.87,66.29
			c0.53,4.73,2.18,9.31,5.58,12.98c1.07,2.23,2.72,3.88,4.94,4.97c5.97,4.74,12.62,4.79,18.47,0.14c2.21-1.1,3.77-2.84,4.94-4.97
			l0,0c2.74-2.59,4.9-5.62,6.6-8.98c0.91-0.61,1.44-1.47,1.64-2.54l0,0c6.47-9.89,10.34-20.74,12.09-32.39
			c0.36-0.48,0.71-0.97,1.07-1.45c4.71-1.32,7.17-5.48,10.63-8.39c0.91,0.22,0.69,1.07,0.93,1.67c-3.22,8.18-5.28,16.63-5.64,25.43
			c-0.36,8.86,0.82,17.38,6.14,24.86c5.28,8.69,13.35,9.41,20.92,1.87c2.34-1.5,4.26-3.41,5.77-5.74c1.49-1.08,2.61-2.45,3.28-4.17
			c0.93-0.57,1.46-1.41,1.67-2.47c4.12-5.79,6.43-12.34,8.15-19.15c1.81-2.17,0.57-5.85,3.67-7.37l0,0
			c0.59,0.18,1.07,0.08,1.36-0.52c4.42-0.93,7.92-3.3,10.66-6.84c0.77-0.72,1.53-1.46,2.33-2.15c0.43-0.37,0.77-1.35,1.44-0.74
			c0.37,0.34,0.22,1.25,0.3,1.9c-0.47,2-0.99,4-1.39,6.01c-2.47,12.51-5.71,24.91-5.49,37.8c0.09,5.34,2.17,8.42,5.9,9.22
			c3.55,0.77,6.77-1.02,9.06-5.59c5.76-11.5,7.08-24.07,8.43-36.61c3.57-3.1,4.67-7.59,6.55-11.64c1.04-1.17,1.8-2.47,1.71-4.11l0,0
			c0.24-0.59,0.49-1.17,0.73-1.76c3.06-4.28,5.04-9.14,7.52-13.74c1.53-1.74,2.78-3.63,3.26-5.95v0v0c0.49-0.68,1.02-1.34,0.86-2.27
			c2.06-0.43,2.38-2.43,3.34-3.81c3.66-5.25,7.87-9.66,14.7-10.39c4.3,0.9,2.13,4.17,2.39,6.55c-4.41,15.26-10.45,29.95-15.68,44.92
			c-3.12,8.94-5.43,18.18-4.87,27.74c0.39,6.65,1.93,13.07,8.78,16.45c4.86,2.52,8.38,2.09,12.77-1.54c2.59-1.53,4.61-3.69,6.5-5.98
			c0.05,0,0.09-0.03,0.14-0.09c1.35-0.76,2.38-1.84,3.17-3.17c1.41-0.79,2.48-1.92,3.29-3.3c1.73-1.37,3.47-2.73,4.15-4.98
			c0.19-0.15,0.21-0.32,0.08-0.52c1.65-1.03,2.53-2.65,3.34-4.34c1.76-0.05,2.21-1.61,3.07-2.69l0,0
			C1010.16,650.81,1011.54,649.69,1010.78,647.87z M902.43,627.24c-0.74-2.3-1.96-4.44-2.29-6.87c0.04-0.12,0.1-0.26,0.15-0.39
			c3.27,1.27,3.7,2.7,2.16,7.28C902.45,627.25,902.44,627.24,902.43,627.24z M905.94,602.27c0.04-0.01,0.06-0.03,0.1-0.04
			c-0.01,0.04-0.01,0.08-0.02,0.12C905.98,602.32,905.96,602.29,905.94,602.27z M847.91,622.78c-1.44-1.49-3.35-2.08-5.25-2.69
			c0.56-2.18-0.22-4.43,0.25-6.61c1.52,0.97,3.17,1.24,4.98,0.71c-0.03,0.03-0.06,0.05-0.08,0.08c-0.52,2.84,0.29,5.66,0.11,8.5
			L847.91,622.78z M834.03,591.25c0.42-0.46,0.9-0.87,1.45-1.18C834.98,590.46,834.49,590.85,834.03,591.25z M839.65,661.84
			c0.08-0.05,0.17-0.1,0.26-0.14c0,0.06,0.01,0.11,0.01,0.17C839.83,661.86,839.74,661.85,839.65,661.84z M906.65,637.1
			c0.02-0.02,0.03-0.05,0.05-0.08l0,0v0c0,0.04,0,0.07,0,0.11C906.69,637.13,906.67,637.11,906.65,637.1z"/>
	</g>
</g>
</svg>
